<svg width="257" height="256" viewBox="0 0 257 256" fill="none" xmlns="http://www.w3.org/2000/svg">
<path d="M256.261 0H0.260742V256H256.261V0Z" fill="#512DBC"/>
<path d="M73.8054 117.532C72.7307 132.901 84.3114 146.252 99.7154 147.423L101.304 147.543L101.064 145.968C100.575 142.755 100.442 139.405 100.68 136.008C101.889 118.71 112.354 105.368 124.001 105.728L126.493 105.805L125.086 103.746C120.269 96.6962 112.501 92.1566 103.799 91.5482C88.3144 90.4654 74.8847 102.097 73.8054 117.532ZM76.3337 117.708C77.3151 103.673 89.5319 93.0911 103.623 94.0764L104.149 94.1186C110.98 94.7358 117.139 98.017 121.436 103.124L121.578 103.297L121.33 103.325C109.3 104.841 99.355 118.618 98.1513 135.831L98.0927 136.807C97.9621 139.406 98.0379 141.977 98.3141 144.483L98.3429 144.729L98.156 144.703C85.0243 142.804 75.3975 131.096 76.3337 117.708Z" fill="white"/>
<path fill-rule="evenodd" clip-rule="evenodd" d="M175.296 54.5304C177.221 55.7548 175.358 58.8525 172.959 62.4235L172.643 62.8919C172.431 63.2058 172.216 63.5228 172 63.842L171.617 64.4099L171.234 64.9813C168.82 68.6088 166.618 72.3763 167.654 74.9809C168.324 76.6644 177.328 73.1559 186.956 69.3131L187.708 69.0131C187.833 68.963 187.959 68.9128 188.084 68.8627L189.341 68.3608C189.587 68.2624 189.834 68.164 190.08 68.0657L191.187 67.6247L191.923 67.3324C192.29 67.1866 192.656 67.0417 193.021 66.8977L193.749 66.6111C202.575 63.1427 210.374 60.3719 210.956 62.1993C212.878 68.2424 209.898 77.7998 206.197 87.8493L205.783 88.9678C205.644 89.3412 205.504 89.7151 205.364 90.0894L204.942 91.2132C204.7 91.8559 204.457 92.4991 204.214 93.1423L203.487 95.0704C201.432 100.528 199.457 105.919 198.22 110.769C197.929 111.909 200.753 112.183 204.512 112.192L205.082 112.191C206.332 112.186 207.669 112.156 209.018 112.121L209.642 112.105L210.414 112.085L211.03 112.07C211.231 112.065 211.431 112.06 211.631 112.055L212.227 112.042C217.172 111.938 221.452 112.005 221.144 113.326C217.828 127.558 208.489 144.6 193.126 164.452C173.384 188.311 153.431 200.24 133.267 200.24C103.022 200.24 78.5035 185.934 78.5035 168.286C78.5035 166.892 78.4743 165.57 78.4593 164.31L78.4593 164.281C74.6725 162.717 72.1419 160.004 72.1419 156.783C72.1419 151.676 78.5022 147.847 86.1449 147.847L86.3554 147.848C87.0688 147.415 87.8458 146.985 88.6921 146.558C91.0488 145.366 86.2535 142.608 83.5978 133.776C82.4874 130.083 81.2229 121.616 83.5978 118.438C85.9727 115.26 84.1863 120.284 91.2393 123.551C93.5034 124.6 93.9037 109.124 106.522 82.6498C107.877 79.8066 110.757 75.7823 113.839 72.0548L114.369 71.4189C118.533 66.4654 122.927 62.1993 124.352 62.1993C125.335 62.1993 125.51 64.8626 125.52 68.1343L125.52 68.6848C125.519 69.4255 125.511 70.1905 125.503 70.9574L125.497 71.7131C125.463 75.99 125.521 80.0935 126.899 80.0935C131.581 80.0935 170.7 51.6082 175.296 54.5304ZM138.632 160.866C128.33 163.106 121.023 165.153 116.711 167.008C112.46 168.836 106.922 172.314 100.098 177.44C99.1617 177.843 98.5545 178.767 98.5545 179.79C98.5545 181.201 99.6949 182.346 101.102 182.346H139.635C141.042 182.346 142.182 181.201 142.182 179.79V163.216C142.182 162.87 142.112 162.527 141.977 162.209C141.422 160.911 139.925 160.31 138.632 160.866ZM86.1449 149.114C79.1111 149.114 73.4091 152.547 73.4091 156.783C73.4091 161.018 79.1111 164.452 86.1449 164.452C93.1787 164.452 98.8807 161.018 98.8807 156.783C98.8807 152.547 93.1787 149.114 86.1449 149.114ZM118.145 124.364C117.497 124.088 116.75 124.391 116.475 125.041L109.508 141.512C109.233 142.162 112.086 144.177 112.966 143.989L138.285 138.588C139.661 138.295 140.539 136.937 140.247 135.556L138.347 126.588C138.287 126.305 138.18 126.034 138.029 125.786C137.295 124.582 135.727 124.202 134.527 124.939L113.943 137.565L118.819 126.04C119.094 125.39 118.792 124.639 118.145 124.364ZM163.833 82.6498C149.119 82.6498 137.179 94.5757 137.09 109.322C140.299 108.602 143.722 108.213 147.277 108.213C165.258 108.213 179.891 118.171 180.376 130.583C186.59 125.668 190.578 118.047 190.578 109.491C190.578 94.667 178.604 82.6498 163.833 82.6498Z" fill="white"/>
<path fill-rule="evenodd" clip-rule="evenodd" d="M53.8455 168.753L88.8505 175.582L87.8785 180.601L52.8734 173.772L53.8455 168.753Z" fill="white"/>
<path d="M54.064 107.478L53.0319 106.028L51.9997 107.478C45.0542 117.23 41.576 128.138 41.576 140.167C41.576 152.195 45.0542 163.103 51.9997 172.856L53.0319 174.305L54.064 172.856C61.0095 163.103 64.4877 152.195 64.4877 140.167C64.4877 128.138 61.0095 117.23 54.064 107.478ZM53.0315 110.447L53.3408 110.915C59.0854 119.726 61.9533 129.467 61.9533 140.167L61.9479 140.967C61.8081 151.353 58.9417 160.827 53.3408 169.419L53.0302 169.885L52.723 169.419C46.9784 160.607 44.1104 150.866 44.1104 140.167C44.1104 129.467 46.9784 119.726 52.723 110.915L53.0315 110.447Z" fill="white"/>
<path d="M57.009 170.701L57.0453 169.568L55.9229 169.406C51.0702 168.708 47.0134 169.681 43.8467 172.347C40.6811 175.013 39.0235 178.851 38.866 183.765L38.8297 184.899L39.9521 185.06C44.8048 185.758 48.8616 184.786 52.0284 182.119C55.1939 179.453 56.8515 175.615 57.009 170.701ZM54.4041 171.783L54.38 172.042C54.0096 175.566 52.6797 178.257 50.3958 180.18L50.0947 180.425C47.8622 182.174 45.0909 182.939 41.7238 182.704L41.4713 182.682L41.4951 182.425C41.8654 178.9 43.1953 176.209 45.4792 174.286C47.7621 172.364 50.6311 171.517 54.1512 171.763L54.4041 171.783Z" fill="white"/>
<path d="M146 166.494L147.795 168.283L139.978 176.128L132.18 173.519L124.54 178.632L117.053 176.127L112.034 181.166L97.3889 178.226L97.8877 175.741L111.198 178.412L116.368 173.226L124.164 175.834L131.806 170.722L139.292 173.224L146 166.494Z" fill="white"/>
</svg>
